<svg width="32" height="32" viewBox="0 0 32 32" fill="none" xmlns="http://www.w3.org/2000/svg">
<rect width="32" height="32" rx="16" fill="#0F62AC"/>
<rect x="8" y="8" width="16" height="16" rx="8" fill="white"/>
<path fill-rule="evenodd" clip-rule="evenodd" d="M7.33325 15.1334C7.33325 10.8255 10.8254 7.33337 15.1333 7.33337H16.8666C21.1744 7.33337 24.6666 10.8255 24.6666 15.1334V16.8667C24.6666 21.1746 21.1744 24.6667 16.8666 24.6667H15.1333C10.8254 24.6667 7.33325 21.1746 7.33325 16.8667V15.1334ZM22.9642 12.75C23.1964 13.3691 23.5833 14.2203 23.5833 14.9167H21.3392H16.7738L14.3749 19.4048H11.8988L15.4583 12.75H20.3333C19.4047 11.3572 17.7797 10.5834 15.9999 10.5834C12.9821 10.5834 10.5833 12.9822 10.5833 16C10.5833 19.0179 13.0594 21.4167 15.9999 21.4167C17.7023 21.4167 19.3273 20.5656 20.3333 19.3274H16.7738L18.0118 17.1608H23.5833C23.5059 17.9345 23.2738 18.7084 22.8868 19.3274C21.8035 21.5715 19.6368 23.1965 17.0833 23.5834C12.9047 24.2024 9.03565 21.2619 8.41659 17.1608C7.87492 12.9048 10.738 9.03576 14.9166 8.41671C18.3214 7.95243 21.5714 9.80953 22.9642 12.75Z" fill="#0F62AC"/>
</svg>
