<svg width="32" height="32" viewBox="0 0 32 32" fill="none" xmlns="http://www.w3.org/2000/svg">
<rect width="32" height="32" rx="16" fill="#074337"/>
<path d="M22.8191 17.4093C22.6129 16.8161 22.2799 16.3047 21.8517 15.8459C21.7935 15.8143 21.7829 15.8564 21.7724 15.896C21.7618 15.9435 21.7645 15.9909 21.7645 16.041C21.7697 16.4259 21.701 16.8003 21.6217 17.1721C21.6085 17.2327 21.5979 17.2959 21.5186 17.2169C21.0772 16.7766 20.6357 16.3363 20.1917 15.896C20.1361 15.8406 20.1361 15.7958 20.1917 15.7404C20.6357 15.3001 21.0772 14.8625 21.5186 14.4195C21.5794 14.3589 21.6032 14.38 21.6191 14.4512C21.6508 14.6147 21.6905 14.7755 21.7142 14.9415C21.7486 15.1841 21.775 15.4293 21.7697 15.6745C21.7697 15.722 21.7459 15.809 21.8543 15.7905C21.8728 15.7668 21.8913 15.7431 21.9125 15.7193C22.7821 14.7702 23.1601 13.6549 23.0201 12.3789C22.8297 10.6757 21.6191 9.27833 19.9564 8.8143C19.7027 8.74575 19.4409 8.71675 19.1819 8.66666H18.4947C18.3175 8.69566 18.1378 8.67984 17.9607 8.71939C17.1915 8.88549 16.5201 9.23878 15.9359 9.76344C15.8936 9.80036 15.8487 9.83727 15.8672 9.90318V9.90582C15.9015 9.93746 15.9491 9.93746 15.9914 9.93482C16.2267 9.92691 16.4567 9.95591 16.6866 9.99018C16.8901 10.0192 17.0937 10.0509 17.2893 10.1089C17.2813 10.1642 17.2443 10.1853 17.2179 10.2117C16.8003 10.6282 16.3853 11.0421 15.9676 11.4561C15.8487 11.5747 15.846 11.5747 15.7297 11.4587C15.3121 11.0448 14.8944 10.6282 14.4794 10.2143C14.453 10.1879 14.416 10.1669 14.4107 10.1247C14.4292 10.093 14.4636 10.093 14.4927 10.0877C14.8812 10.006 15.2698 9.94273 15.6689 9.93746C15.7324 9.93746 15.7985 9.95591 15.8539 9.90582C15.8566 9.90582 15.8566 9.90318 15.8566 9.90318C15.8566 9.82672 15.7985 9.78718 15.7509 9.74499C15.2487 9.29678 14.6751 8.97776 14.0248 8.78794C13.7578 8.71148 13.4829 8.68775 13.208 8.66666H12.5207C12.3515 8.69566 12.1797 8.68248 12.0132 8.71939C11.0273 8.93558 10.2105 9.42334 9.57341 10.2037C9.12935 10.7495 8.84121 11.3717 8.70641 12.0677C8.67995 12.2128 8.69321 12.3604 8.66675 12.5081V13.1935C8.69848 13.386 8.68528 13.5837 8.73021 13.7762C8.89935 14.5145 9.21395 15.1867 9.75055 15.722C9.98315 15.954 9.94615 15.7325 9.75055 15.9276C9.21655 16.4602 8.89935 17.1351 8.73021 17.8733C8.68528 18.0658 8.69848 18.2635 8.66675 18.456V19.1389C8.70115 19.3366 8.73021 19.5343 8.77248 19.7268C9.24828 21.8914 11.4634 23.3336 13.6494 22.9091C14.0882 22.8247 14.5006 22.6692 14.8971 22.4767C14.9235 22.4635 14.9579 22.4688 14.9843 22.453C15.2777 22.2895 15.5447 22.0918 15.7905 21.8624C15.8223 21.8334 15.8672 21.7965 15.8487 21.7517C15.8302 21.6989 15.7667 21.7069 15.7218 21.7095C15.4839 21.7147 15.2487 21.6857 15.0134 21.6541C14.8099 21.6251 14.6063 21.5935 14.4133 21.5381C14.4081 21.4985 14.4265 21.4854 14.4424 21.4722C14.8812 21.0345 15.32 20.5995 15.7588 20.1619C15.8328 20.0854 15.8831 20.0959 15.9544 20.1671C16.3826 20.5969 16.8109 21.024 17.2417 21.4511C17.2629 21.4749 17.3025 21.4907 17.2919 21.5381C17.2443 21.5592 17.1915 21.5671 17.1413 21.5777C16.7659 21.6515 16.3879 21.7174 16.0046 21.7121C15.9544 21.7121 15.8883 21.7016 15.8725 21.7675C15.8593 21.8255 15.9147 21.8571 15.9544 21.8941C15.9782 21.9151 16.0152 21.9046 16.0363 21.9283C16.0575 21.9441 16.0787 21.9573 16.0998 21.9731C17.1069 22.8037 18.2567 23.1227 19.5441 22.9197C22.0896 22.5163 23.6729 19.8481 22.8191 17.4093ZM11.5955 15.8723C11.1039 16.36 10.6122 16.8477 10.11 17.3513C9.84041 16.4338 9.84041 15.2659 10.1021 14.3141C10.1338 14.3035 10.147 14.3325 10.1629 14.3483C10.6334 14.815 11.1039 15.2817 11.5717 15.7483C11.6035 15.7826 11.659 15.809 11.5955 15.8723Z" fill="white"/>
<path d="M17.2529 13.2344C17.7869 13.4954 18.1886 13.8882 18.4688 14.3997C19.4601 16.203 18.3578 18.4204 16.3119 18.7446C15.9735 18.7974 15.6378 18.8132 15.3101 18.6866C14.7021 18.4546 14.3267 17.8113 14.4298 17.1706C14.5355 16.5142 15.0986 16.008 15.7594 16.0027C16.7269 15.9921 17.3163 15.3646 17.4934 14.7582C17.6441 14.2468 17.578 13.7643 17.2978 13.3082C17.2846 13.2844 17.2687 13.2581 17.2529 13.2344Z" fill="#D2AB66"/>
<path d="M14.3083 18.3474C14.081 18.2155 13.8749 18.0547 13.7004 17.8597C12.9179 16.9949 12.6721 15.9903 13.0395 14.8857C13.3991 13.8021 14.1841 13.1482 15.3075 12.9083C15.6353 12.8397 15.9684 12.8133 16.2961 12.9346C16.9332 13.1719 17.3112 13.8126 17.2001 14.4823C17.0918 15.1335 16.5155 15.6213 15.8389 15.6344C14.7974 15.6555 14.0335 16.4412 14.0625 17.4668C14.0705 17.7331 14.1445 17.9835 14.2713 18.2182C14.2899 18.2525 14.3083 18.2867 14.3242 18.3237C14.3216 18.3289 14.3163 18.3342 14.3083 18.3474Z" fill="#D2AB66"/>
<path d="M15.8208 17.7645C15.6147 17.7671 15.4402 17.5931 15.4402 17.3901C15.4402 17.1897 15.6067 17.021 15.8076 17.0157C16.0111 17.0105 16.1909 17.1792 16.1962 17.3822C16.2015 17.5852 16.027 17.7619 15.8208 17.7645Z" fill="white"/>
<path d="M15.8182 14.616C15.6067 14.616 15.4375 14.4498 15.4402 14.2416C15.4429 14.0412 15.6094 13.8751 15.8103 13.8724C16.0191 13.8698 16.1909 14.0359 16.1935 14.2416C16.1962 14.4498 16.027 14.616 15.8182 14.616Z" fill="white"/>
</svg>
